<mxfile host="app.diagrams.net" modified="2023-05-11T11:20:12.783Z" agent="Mozilla/5.0 (Windows NT 10.0; Win64; x64) AppleWebKit/537.36 (KHTML, like Gecko) Chrome/112.0.0.0 Safari/537.36" version="21.1.4" etag="tsSYM5GT5zEoiYfIovy5" type="github">
  <diagram name="Page-1" id="zIkFLAzazLna8XuCK4rC">
    <mxGraphModel>
      <root>
        <mxCell id="0" />
        <mxCell id="1" parent="0" />
      </root>
    </mxGraphModel>
  </diagram>
</mxfile>
